<?xml version="1.0" encoding="iso-8859-1"?>
<!-- Generator: Adobe Illustrator 17.0.0, SVG Export Plug-In . SVG Version: 6.00 Build 0)  -->
<!DOCTYPE svg PUBLIC "-//W3C//DTD SVG 1.1//EN" "http://www.w3.org/Graphics/SVG/1.1/DTD/svg11.dtd">
<svg version="1.1" id="&#x56FE;&#x5C42;_1" xmlns="http://www.w3.org/2000/svg" xmlns:xlink="http://www.w3.org/1999/xlink" x="0px"
	 y="0px" width="378.297px" height="113.828px" viewBox="0 0 378.297 113.828" style="enable-background:new 0 0 378.297 113.828;"
	 xml:space="preserve">
<g>
	<circle style="fill:#FFFFFF;" cx="56.914" cy="56.914" r="51.618"/>
	<g>
		<g style="opacity:0.8;">
			<path style="fill:#3AB483;" d="M70.307,70.56c-2.476,3.302,0.568,9.761-1.834,14.418c0.248,0.058,0.5,0.118,0.765,0.146
				c1.291,0.025,2.548,0.045,3.782,0.146c7.144,0,12.25,0,12.25,0s0-5.104,0-12.249c-0.103-1.238-0.124-2.492-0.145-3.783
				c-0.044-0.23-0.111-0.444-0.171-0.664C80.419,71.428,73.597,67.269,70.307,70.56z"/>
			<path style="fill:#3AB483;" d="M43.625,42.156c2.05-3.69-0.575-8.938,1.692-13.258c-0.235-0.069-0.471-0.146-0.721-0.191
				c-1.297-0.025-2.553-0.045-3.786-0.146c-7.147,0-12.249,0-12.249,0s0,5.105,0,12.25c0.102,1.233,0.123,2.489,0.148,3.786
				c0.051,0.242,0.131,0.466,0.21,0.699C33.919,42.562,40.741,46.686,43.625,42.156z"/>
			<path style="fill:#3AB483;" d="M71.167,43.021c3.283,2.459,9.305-0.157,13.766,2.285c0.071-0.233,0.143-0.464,0.192-0.707
				c0.021-1.298,0.042-2.55,0.145-3.786c0-7.145,0-12.25,0-12.25s-5.106,0-12.25,0c-1.234,0.101-2.491,0.121-3.782,0.146
				c-0.251,0.05-0.46,0.164-0.694,0.237C70.828,33.375,67.898,39.746,71.167,43.021z"/>
			<path style="fill:#3AB483;" d="M43.625,70.56c-2.885-3.71-9.707,0.456-14.707-2.053c-0.077,0.239-0.158,0.472-0.21,0.731
				c-0.025,1.291-0.046,2.545-0.148,3.783c0,7.145,0,12.249,0,12.249s5.103,0,12.249,0c1.234-0.101,2.489-0.121,3.786-0.146
				c0.246-0.053,0.482-0.134,0.719-0.212C42.706,79.876,46.509,73.44,43.625,70.56z"/>
			<path style="fill:#3AB483;" d="M57.954,37.082c4.061-1.158,5.94-6.681,10.59-8.138c-0.119-0.232-0.244-0.466-0.398-0.686
				c-0.897-0.928-1.771-1.831-2.567-2.779c-5.053-5.054-8.66-8.661-8.66-8.661s-3.611,3.609-8.665,8.661
				c-0.798,0.948-1.67,1.846-2.571,2.779c-0.139,0.209-0.249,0.424-0.365,0.64C50.799,30.489,52.705,38.247,57.954,37.082z"/>
			<path style="fill:#3AB483;" d="M88.349,48.254c-0.94-0.797-1.845-1.674-2.777-2.572c-0.206-0.141-0.423-0.26-0.639-0.376
				c-1.484,4.781-8.115,7.218-8.115,11.861c0.586,4.076,6.736,6.489,8.137,11.407c0.208-0.133,0.418-0.257,0.616-0.421
				c0.933-0.901,1.838-1.776,2.778-2.578c5.054-5.049,8.661-8.658,8.661-8.658S93.402,53.307,88.349,48.254z"/>
			<path style="fill:#3AB483;" d="M37.871,57.167c0.583-4.668-7.207-6.548-8.952-11.869c-0.225,0.118-0.447,0.232-0.66,0.381
				c-0.931,0.901-1.833,1.778-2.781,2.578c-5.05,5.051-8.66,8.66-8.66,8.66s3.611,3.609,8.66,8.658
				c0.949,0.802,1.85,1.677,2.781,2.578c0.213,0.138,0.436,0.243,0.66,0.355C30.632,63.104,37.871,61.243,37.871,57.167z"/>
			<path style="fill:#3AB483;" d="M56.735,76.03c-4.063,0.583-6.472,7.249-11.419,8.881c0.116,0.224,0.224,0.448,0.367,0.665
				c0.896,0.93,1.773,1.828,2.571,2.774c5.054,5.054,8.66,8.661,8.66,8.661s3.612-3.607,8.665-8.661
				c0.796-0.946,1.67-1.844,2.567-2.775c0.127-0.196,0.226-0.396,0.326-0.597C63.267,83.776,61.383,76.03,56.735,76.03z"/>
		</g>
		<path style="fill:#3AB483;" d="M76.818,57.167c0-4.643,6.631-7.08,8.115-11.861c-4.461-2.442-10.483,0.174-13.766-2.285
			c-3.269-3.274-0.339-9.645-2.623-14.076c-4.649,1.456-6.529,6.979-10.59,8.138c-5.249,1.165-7.156-6.593-12.637-8.184
			c-2.267,4.32,0.358,9.568-1.692,13.258c-2.885,4.53-9.707,0.406-14.707,3.142c1.745,5.321,9.535,7.201,8.952,11.869
			c0,4.076-7.239,5.937-8.952,11.341c5,2.509,11.822-1.657,14.707,2.053c2.884,2.88-0.92,9.316,1.69,14.351
			c4.947-1.632,7.356-8.298,11.419-8.881c4.649,0,6.532,7.747,11.738,8.948c2.403-4.656-0.641-11.115,1.834-14.418
			c3.29-3.291,10.112,0.868,14.647-1.987C83.553,63.655,77.403,61.243,76.818,57.167z"/>
		<g>
			<rect x="51.683" y="38.396" style="fill-rule:evenodd;clip-rule:evenodd;fill:#FFFFFF;" width="11.383" height="36.993"/>
			<rect x="38.875" y="51.201" style="fill-rule:evenodd;clip-rule:evenodd;fill:#FFFFFF;" width="36.994" height="11.38"/>
		</g>
		<path style="fill:#FABE00;" d="M56.914,0C25.481,0,0,25.483,0,56.915c0,31.433,25.481,56.913,56.914,56.913
			s56.914-25.48,56.914-56.913C113.828,25.483,88.346,0,56.914,0z M56.914,103.867c-25.931,0-46.952-21.022-46.952-46.953
			S30.982,9.958,56.914,9.958c25.931,0,46.954,21.026,46.954,46.956S82.845,103.867,56.914,103.867z"/>
	</g>
</g>
<g>
	<path style="fill:#3AB483;" d="M136.679,60.504v-5.262h23.456v-3.758h8.484v3.758h23.456v5.262h-22.207
		c1.996,4.345,9.728,7.344,23.204,9.018v4.257c-13.312-1.003-22.791-3.925-28.445-8.766c-5.657,4.841-15.307,7.763-28.948,8.766
		v-4.257c13.145-1.503,20.877-4.509,23.21-9.018H136.679z"/>
	<path style="fill:#3AB483;" d="M139.675,51.986V20.174h21.129c0.825-1.503,2.24-3.006,2.41-4.505h8.983
		c-0.499,1.669-2.001,3.17-2.663,4.505h19.544v31.812h-7.487v-26.8h-34.435v26.8H139.675z"/>
	<polygon style="fill:#3AB483;" points="198.415,26.35 198.415,20.839 211.056,20.839 210.142,15.923 216.709,15.923 
		217.625,20.839 231.601,20.839 232.519,15.923 239.087,15.923 238.173,20.839 250.507,20.839 250.507,26.35 237.254,26.35 
		236.339,31.362 229.771,31.362 230.685,26.35 218.54,26.35 219.456,31.362 212.889,31.362 211.974,26.35 	"/>
	<path style="fill:#3AB483;" d="M243.081,47.977v16.535c0,5.506-2.832,8.264-8.485,8.264h-7.987v-5.26h4.743
		c2.656,0.166,3.908-1,3.742-3.508V52.237H220.37c-0.998,10.52-8.319,17.781-21.955,21.791V69.27
		c8.81-3.34,13.557-9.018,14.223-17.033h-6.986v-4.008"/>
	<path style="fill:#3AB483;" d="M148.397,46.489c3.119-1.516,5.785-3.444,7.996-5.785l-6.631,0.13v-5.915
		c1.344,0.044,2.686,0.085,4.031,0.13c-1.083-1.691-2.297-3.121-3.641-4.291c1.777-1.041,3.338-2.08,4.68-3.118l2.016,2.339
		c0.996,0.867,1.884,1.885,2.665,3.053c-0.997,0.694-1.887,1.366-2.665,2.016h3.638l-0.128-8.19h7.539
		c-0.13,2.47-0.193,5.201-0.193,8.19h3.964l-2.99-2.277c1.3-1.341,2.557-3.121,3.771-5.328c1.212,0.821,2.925,1.819,5.135,2.991
		c-0.954,0.865-2.103,2.403-3.446,4.613c1.516-0.085,3.01-0.13,4.484-0.13v5.915l-6.304-0.13l6.955,5.785
		c-1.17,1.213-2.666,2.926-4.485,5.136c-1.216-1.908-3.576-4.313-7.085-7.217c0.042,1.734,0.127,3.663,0.258,5.786h-7.605
		c0.041-1.734,0.087-3.446,0.128-5.136c-1.731,1.732-3.899,3.531-6.499,5.394c-0.824,0.564-1.582,1.131-2.274,1.692
		c-0.78-1.95-1.887-3.705-3.316-5.267 M167.705,43.107c0.909-0.389,1.97-1.192,3.183-2.403h-3.183V43.107z"/>
	<path style="fill:#3AB483;" d="M239.298,46.776c-3.125-2.762-6.215-6.496-10.008-12.007c2.174-0.686,4.175-1.599,6.004-2.744
		c0.037,0.113,0.115,0.25,0.229,0.401c3.889,6.633,9.456,11.909,17.461,14.58c-1.295,2.095-1.907,3.565-2.593,5.66
		c-3.585-1.37-6.635-2.914-9.149-4.63"/>
	<path style="fill:#3AB483;" d="M204.765,49.227c-2.662,1.172-5.454,2.675-9.281,3.678v-4.507c8.148-3.01,13.558-7.934,16.22-14.78
		h7.338c-3.833,6.83-6.744,10.416-11.779,14.36"/>
</g>
<g>
	<g>
		<path style="fill:#3AB483;" d="M138.367,100.829v-9.825c-0.546,0.866-0.991,1.483-1.335,1.851
			c-0.273-0.296-0.629-0.527-1.068-0.693c1.708-2.053,2.942-4.497,3.702-7.334l1.157,0.534c-0.296,1.032-0.712,2.148-1.246,3.347
			v12.121H138.367z M152.161,100.312c-1.934,0-3.316-0.018-4.147-0.054c-0.961-0.047-1.732-0.136-2.314-0.267
			c-1.246-0.189-2.26-0.658-3.043-1.406c-0.392,0.76-0.956,1.495-1.691,2.207c-0.261-0.261-0.629-0.469-1.104-0.623
			c0.842-0.712,1.495-1.548,1.958-2.51c-0.605-0.842-1.104-1.887-1.495-3.132l0.925-0.588c0.32,0.985,0.665,1.798,1.032,2.438
			c0.356-1.175,0.534-2.485,0.534-3.934h-1.086c-0.332,0-0.617,0.036-0.854,0.107l-0.338-0.962c0.356-0.13,0.641-0.463,0.854-0.996
			l1.264-2.919h-1.94v-1.122h3.257v0.962l-1.691,3.88h1.638v0.89c0,2.101-0.261,3.845-0.783,5.233
			c0.652,0.664,1.542,1.085,2.67,1.264c1.542,0.284,3.803,0.361,6.781,0.231C152.362,99.428,152.22,99.861,152.161,100.312z
			 M144.187,89.917V88.92h3.115v-1.405h-2.456V86.5h2.456v-1.549h1.121V86.5h2.741v2.42h1.264v0.997h-1.264v2.438h-2.741v1.353
			h3.044v1.032h-3.044v1.371h3.613v1.015h-3.613v1.727h-1.121v-1.727h-3.026v-1.015h3.026v-1.371h-2.545v-1.032h2.545v-1.353h-2.456
			v-1.015h2.456v-1.424H144.187z M150.078,87.515h-1.655v1.405h1.655V87.515z M148.423,91.341h1.655v-1.424h-1.655V91.341z"/>
		<path style="fill:#3AB483;" d="M156.201,100.792c-0.356-0.297-0.777-0.51-1.264-0.641c1.329-1.685,1.969-4.194,1.922-7.529v-6.069
			h6.479c-0.392-0.521-0.789-0.996-1.192-1.424l1.353-0.392c0.593,0.641,1.074,1.246,1.442,1.815h5.518v1.122h-5.553v1.192h4.218
			v2.242h1.708v1.086h-1.708v2.261h-4.111c0.367,0.676,0.818,1.287,1.353,1.833c0.842-0.51,1.578-1.05,2.207-1.62l1.104,0.659
			c-0.866,0.7-1.703,1.264-2.51,1.69c1.115,0.926,2.474,1.591,4.076,1.994c-0.439,0.308-0.79,0.676-1.05,1.104
			c-2.374-0.843-4.135-2.16-5.286-3.952v2.67c0,1.27-0.665,1.905-1.994,1.905c-0.51-0.013-0.938-0.054-1.281-0.125
			c-0.048-0.475-0.172-0.89-0.374-1.246c0.676,0.107,1.168,0.166,1.478,0.178c0.593,0.012,0.884-0.29,0.872-0.907v-1.424
			l-4.806,2.688l-0.979-0.943l5.197-2.581l0.587,0.641v-2.562h-4.076v-1.015h4.076v-1.246h-4.984V91.11h4.984v-1.246h-4.041v-0.996
			h4.041v-1.192h-5.411v4.93C158.218,96.189,157.554,98.918,156.201,100.792z M161.38,97.001c-0.748-0.688-1.495-1.264-2.243-1.727
			l1.015-0.694c0.783,0.463,1.459,0.968,2.029,1.514L161.38,97.001z M167.877,89.864h-2.972v1.246h2.972V89.864z M164.905,93.442
			h2.972v-1.246h-2.972V93.442z"/>
		<path style="fill:#3AB483;" d="M175.495,100.152V85.966h13.51v1.229h-12.139v11.729h12.762v1.228H175.495z M177.685,93.797V92.73
			h4.931c0.083-0.594,0.13-1.424,0.143-2.492h-2.261c-0.403,0.688-0.908,1.365-1.513,2.029c-0.368-0.249-0.783-0.421-1.246-0.517
			c1.27-1.186,2.165-2.628,2.688-4.325l1.139,0.481c-0.166,0.438-0.338,0.848-0.516,1.228h6.728v1.104h-3.755
			c-0.013,1.045-0.065,1.875-0.16,2.492h5.037v1.067h-5.216c-0.475,2.065-2.106,3.655-4.895,4.771
			c-0.285-0.427-0.658-0.753-1.121-0.979c2.634-0.854,4.206-2.118,4.717-3.792H177.685z M187.848,98.461
			c-1.353-1.044-2.942-2.071-4.77-3.079l0.872-0.819c1.471,0.76,2.972,1.68,4.503,2.759L187.848,98.461z"/>
		<path style="fill:#3AB483;" d="M193.722,96.183l-0.872-1.086l2.937-2.652v-5.411h5.999c-0.428-0.581-0.956-1.162-1.585-1.744
			l1.335-0.444c0.688,0.652,1.329,1.382,1.923,2.188h5.251v1.175h-11.623v5.34c0.035,3.05-0.789,5.465-2.475,7.244
			c-0.355-0.272-0.771-0.492-1.245-0.658c1.566-1.495,2.367-3.53,2.402-6.105L193.722,96.183z M194.38,92.089
			c-0.391-1.163-0.842-2.207-1.353-3.133l1.14-0.32c0.475,0.901,0.896,1.881,1.264,2.937L194.38,92.089z M201.856,100.704
			c-0.438,0-0.943-0.035-1.513-0.106c-0.035-0.546-0.184-1.003-0.444-1.371c0.747,0.107,1.341,0.166,1.779,0.179
			c0.7,0.035,1.032-0.309,0.997-1.032v-4.735c1.246-0.747,2.302-1.519,3.168-2.313h-7.262v-1.175h9.148v1.032
			c-0.985,1.068-2.225,2.095-3.72,3.079v4.379C204.033,100.028,203.315,100.715,201.856,100.704z"/>
		<path style="fill:#3AB483;" d="M219.298,100.152c-0.735-0.415-1.471-0.801-2.207-1.157c-1.056,0.748-2.491,1.306-4.307,1.674
			c-0.262-0.416-0.576-0.736-0.943-0.962c1.685-0.32,3.02-0.747,4.005-1.281c-0.653-0.296-1.608-0.676-2.866-1.139
			c0.332-0.392,0.748-0.973,1.246-1.744h-1.922v-1.104h2.545c0.261-0.475,0.504-0.962,0.729-1.46l1.157,0.427
			c-0.166,0.368-0.338,0.712-0.517,1.033h3.578v0.979c-0.392,1.092-0.962,2.012-1.709,2.759c0.522,0.226,1.038,0.469,1.549,0.729
			L219.298,100.152z M212.393,89.846v-1.067h3.595v-3.649h1.211v3.649h3.506v1.067h-3.506v2.938h-1.211v-2.261
			c-0.843,1.092-1.798,2.005-2.865,2.741c-0.285-0.345-0.665-0.594-1.14-0.748c1.27-0.664,2.368-1.555,3.293-2.67H212.393z
			 M214.581,88.369c-0.652-0.652-1.341-1.251-2.064-1.797l0.943-0.623c0.629,0.438,1.234,0.949,1.815,1.53L214.581,88.369z
			 M218.48,95.542h-2.848c-0.285,0.462-0.558,0.89-0.819,1.281c0.665,0.237,1.377,0.516,2.137,0.836
			C217.59,97.126,218.1,96.42,218.48,95.542z M219.494,92.748c-0.629-0.581-1.371-1.127-2.225-1.638l0.818-0.712
			c0.629,0.356,1.293,0.819,1.993,1.389L219.494,92.748z M218.586,88.405c-0.249-0.285-0.546-0.517-0.89-0.694
			c0.7-0.546,1.335-1.145,1.904-1.798l0.926,0.677C220.064,87.124,219.417,87.728,218.586,88.405z M220.598,100.81
			c-0.273-0.355-0.665-0.658-1.175-0.907c1.602-0.818,2.865-1.869,3.791-3.15c-0.724-1.163-1.287-2.551-1.69-4.165
			c-0.226,0.439-0.457,0.812-0.694,1.121c-0.309-0.272-0.683-0.469-1.121-0.587c1.341-1.97,2.331-4.693,2.972-8.17l1.192,0.427
			c-0.166,0.926-0.403,1.894-0.712,2.901h4.61v1.175h-1.157c-0.154,3.073-0.765,5.512-1.833,7.315
			c0.914,1.14,2.088,2.071,3.524,2.795c-0.439,0.284-0.813,0.635-1.121,1.05c-1.271-0.818-2.32-1.732-3.15-2.741
			C223.131,99.025,221.986,100.003,220.598,100.81z M222.805,89.455c-0.166,0.487-0.338,0.955-0.517,1.406
			c0.345,1.84,0.896,3.412,1.655,4.717c0.843-1.602,1.317-3.643,1.424-6.123H222.805z"/>
		<path style="fill:#3AB483;" d="M230.957,89.651v-1.104h2.082v-3.578h1.175v3.578h1.869v1.104h-1.869v2.83l1.566-0.766l0.552,0.89
			l-2.118,1.157v4.948c0.012,1.27-0.6,1.898-1.833,1.887c-0.403,0-0.789-0.03-1.157-0.089c0.012-0.38-0.089-0.783-0.303-1.211
			c0.451,0.083,0.866,0.125,1.246,0.125c0.581,0.012,0.872-0.268,0.872-0.837v-4.183l-1.798,0.961l-0.747-1.05l2.545-1.229v-3.435
			H230.957z M238.415,100.829V95.08h3.043V93.05h-3.453c-0.035,3.025-0.718,5.535-2.047,7.529c-0.332-0.202-0.765-0.345-1.299-0.428
			c1.483-1.993,2.189-4.692,2.118-8.099v-6.336h8.988v4.307h-3.079v1.958h4.022v1.068h-4.022v2.029h3.079v5.749h-1.21V99.76h-4.913
			v1.068H238.415z M238.023,86.785v2.189h6.514v-2.189H238.023z M238.023,90.024v1.958h3.435v-1.958H238.023z M239.643,96.129v2.563
			h4.913v-2.563H239.643z"/>
		<path style="fill:#3AB483;" d="M252.618,100.81v-9.718c-0.652,0.902-1.329,1.697-2.028,2.385
			c-0.368-0.309-0.777-0.539-1.229-0.693c2.278-2.29,3.922-4.907,4.931-7.85l1.21,0.676c-0.38,1.092-0.902,2.22-1.566,3.382v11.818
			H252.618z M255.822,96.147c-0.309-0.367-0.665-0.646-1.068-0.836c1.258-0.688,2.498-1.495,3.721-2.421v-7.921h1.353v6.853
			c1.721-1.436,3.108-2.895,4.165-4.378l1.156,0.693c-1.399,1.84-3.174,3.613-5.321,5.322v4.36c-0.024,0.854,0.35,1.271,1.121,1.246
			h2.029c0.724,0.048,1.169-0.397,1.335-1.335c0.106-0.392,0.201-0.859,0.284-1.406c0.321,0.381,0.688,0.647,1.104,0.802
			c-0.047,0.403-0.124,0.818-0.23,1.246c-0.333,1.328-1.116,1.976-2.35,1.939h-2.367c-1.531,0.012-2.291-0.801-2.278-2.438v-3.417
			C257.561,95.097,256.677,95.661,255.822,96.147z"/>
		<path style="fill:#3AB483;" d="M269.74,100.508l-1.015-1.032c0.748-0.843,1.501-1.603,2.261-2.278v-5.571h-2.278v-1.211h3.596
			v6.764c0.984,0.997,2.373,1.549,4.165,1.655c2.479,0.226,5.179,0.22,8.098-0.018c-0.261,0.451-0.403,0.938-0.427,1.46
			c-2.848,0.059-5.008,0.053-6.479-0.019c-2.54-0.035-4.527-0.7-5.963-1.993C270.927,98.977,270.274,99.725,269.74,100.508z
			 M272.393,89.117c-0.985-1.08-1.935-1.999-2.848-2.759l1.104-0.748c0.973,0.796,1.845,1.644,2.616,2.546L272.393,89.117z
			 M273.389,91.252V90.06h10.502v1.192h-5.215c-0.725,1.495-1.566,2.949-2.527,4.36l4.876-0.392
			c-0.558-0.854-1.073-1.613-1.548-2.277l1.157-0.41c1.114,1.46,2.076,2.884,2.883,4.272l-1.032,0.836
			c-0.035-0.071-0.095-0.172-0.178-0.303c-0.226-0.415-0.416-0.741-0.569-0.979l-5.98,0.517c-0.404,0.035-0.825,0.136-1.264,0.302
			l-0.659-1.139c0.451-0.131,0.854-0.451,1.211-0.961c0.807-1.258,1.536-2.533,2.188-3.827H273.389z M274.403,87.425v-1.174h8.188
			v1.174H274.403z"/>
		<path style="fill:#3AB483;" d="M297.329,88.636v-1.175h-3.951v1.175h-1.282v-1.175h-4.36v-1.104h4.36v-1.406h1.282v1.406h3.951
			v-1.406h1.281v1.406h4.379v1.104h-4.379v1.175H297.329z M301.298,92.142v-2.011h-11.89v2.029h-1.316v-3.115h14.506v3.097H301.298z
			 M289.516,100.829v-4.984h11.711v4.984h-1.335v-0.872h-9.041v0.872H289.516z M290.851,96.913v1.976h9.041v-1.976H290.851z
			 M290.868,94.723v-3.506h8.971v3.506H290.868z M292.167,93.745h6.354v-1.549h-6.354V93.745z"/>
		<path style="fill:#3AB483;" d="M307.44,89.722c-0.356-0.297-0.766-0.505-1.229-0.623c1.519-1.187,2.581-2.604,3.187-4.254
			l1.174,0.409c-0.166,0.427-0.326,0.783-0.48,1.067h4.184v0.997h-4.771C308.946,88.197,308.258,88.999,307.44,89.722z
			 M307.297,92.641v-2.795h6.604c-0.309-0.38-0.617-0.718-0.926-1.015l1.104-0.373c0.463,0.45,0.878,0.913,1.246,1.388h6.087v2.795
			h-1.317v-1.815h-11.479v1.815H307.297z M318.599,100.81v-0.818h-7.885v0.837h-1.316V92h9.753v3.328h-8.437v1.21h9.202v4.271
			H318.599z M311.551,89.543c-0.486-0.581-0.991-1.097-1.513-1.548l1.015-0.463c0.558,0.498,1.014,0.961,1.37,1.388L311.551,89.543z
			 M310.714,92.997v1.353h7.155v-1.353H310.714z M318.599,97.536h-7.885v1.441h7.885V97.536z M315.253,88.814
			c-0.297-0.237-0.683-0.415-1.157-0.534c1.021-0.949,1.756-2.094,2.207-3.435l1.122,0.392c-0.119,0.38-0.268,0.741-0.445,1.085
			h4.877v0.997h-5.429C316.131,87.793,315.739,88.292,315.253,88.814z M318.83,89.562c-0.546-0.594-1.109-1.109-1.69-1.549
			l0.979-0.48c0.629,0.51,1.146,0.973,1.549,1.388L318.83,89.562z"/>
		<path style="fill:#3AB483;" d="M325.273,87.497v-1.139h5.624v1.139h-2.136v3.97h1.904v1.121h-1.904v4.147l1.993-0.641l0.409,1.014
			l-5.606,1.994l-0.694-1.157l2.635-0.818v-4.539h-2.029v-1.121h2.029v-3.97H325.273z M331.716,93.637v-7.813h8.438v7.813h-3.596
			v1.958h3.827v1.175h-3.827v2.207h4.574v1.175h-10.501v-1.175h4.663V96.77h-3.81v-1.175h3.81v-1.958H331.716z M332.962,86.981
			v2.207h2.332v-2.207H332.962z M332.962,92.481h2.332v-2.226h-2.332V92.481z M338.89,86.981h-2.332v2.207h2.332V86.981z
			 M336.558,92.481h2.332v-2.226h-2.332V92.481z"/>
		<path style="fill:#3AB483;" d="M345.671,87.265v-1.264h12.584v1.264h-5.589v6.515h7.262v1.281h-7.262v5.785h-1.424v-5.785h-7.262
			V93.78h7.262v-6.515H345.671z M348.964,92.676c-1.092-1.293-2.255-2.485-3.488-3.577l1.121-0.677
			c1.162,1.032,2.236,2.118,3.222,3.257L348.964,92.676z M354.927,92.694c-0.32-0.296-0.694-0.521-1.122-0.676
			c1.27-1.115,2.392-2.344,3.364-3.685l1.05,0.694C357.294,90.321,356.196,91.543,354.927,92.694z"/>
		<path style="fill:#3AB483;" d="M377.442,92.89c-0.071-0.071-0.178-0.189-0.32-0.356c-0.439-0.475-0.783-0.842-1.032-1.104
			l-10.039,0.356c-0.641,0.048-1.222,0.143-1.744,0.284l-0.605-1.245c0.617-0.179,1.175-0.486,1.674-0.926
			c1.839-1.626,3.394-3.299,4.663-5.02l1.317,0.605c-1.282,1.649-2.854,3.334-4.717,5.055l8.276-0.285
			c-0.866-0.818-1.673-1.554-2.421-2.207l1.104-0.765c1.685,1.436,3.251,2.96,4.699,4.574L377.442,92.89z M365.268,100.829v-7.173
			h11.16v7.173h-1.37v-1.192h-8.401v1.192H365.268z M366.656,94.866v3.577h8.401v-3.577H366.656z"/>
	</g>
</g>
<path style="fill:#FABE00;" d="M258.988,54.118V24.376h7.435v-7.683h5.701v7.683h7.435v22.802c0.163,4.794-2.067,7.106-6.692,6.94
	h-0.743v8.922l4.213-0.743c-0.166-1.983-0.496-3.965-0.991-5.948h3.965c1.321,5.123,2.064,10.162,2.231,15.119h-4.461
	c0-1.653-0.085-3.059-0.248-4.213c-5.785,1.154-12.311,1.898-19.58,2.231v-5.453c3.47,0,6.526-0.082,9.17-0.248v-9.666H258.988z
	 M263.45,49.409h2.974V29.581h-2.974V49.409z M275.098,29.581h-2.974v19.827c1.983,0,2.974-0.991,2.974-2.974V29.581z
	 M314.506,41.973c-6.94-0.659-12.64-2.064-17.101-4.213c-3.966,1.82-9.503,3.222-16.606,4.213V37.76
	c2.974-0.496,6.607-1.487,10.905-2.974c-2.149-1.817-4.213-3.799-6.196-5.948c-1.158,0.496-2.645,0.828-4.461,0.991v-3.47
	c4.791-2.146,7.846-5.368,9.17-9.666h7.188c-0.496,1.158-0.991,2.231-1.487,3.222h16.358v4.709
	c-2.645,4.298-5.785,7.768-9.418,10.409c3.137,1.158,7.021,2.068,11.649,2.726V41.973z M282.286,49.161V44.7h11.649v-3.965h7.188
	V44.7h11.649v4.461h-11.649v3.718h10.905v4.709h-10.905v3.965h13.631v4.461h-13.631v7.931h-7.188v-7.931H281.79v-4.461h12.144
	v-3.965h-10.657v-4.709h10.657v-3.718H282.286z M304.592,24.624h-12.144c-0.991,0.991-2.231,1.901-3.718,2.726h3.222
	c2.146,2.149,3.881,3.636,5.205,4.461C299.635,30.491,302.113,28.094,304.592,24.624z"/>
<path style="fill:#FABE00;" d="M325.774,51.533V30.625h47.293v13.192c0.164,5.312-2.325,7.883-7.467,7.716h-12.197v3.734h23.895
	v4.978h-11.201c1.824,3.819,5.64,6.557,11.45,8.214v4.48c-9.956-1.827-16.428-6.056-19.415-12.694h-4.729v13.69h-7.965v-13.69
	h-4.729c-2.987,6.639-9.458,10.867-19.415,12.694v-4.48c5.64-1.657,9.374-4.395,11.201-8.214h-10.952v-4.978h23.895v-3.734H325.774z
	 M330.752,29.38c-1.493-2.322-4.068-4.644-7.716-6.969c3.485-1.657,6.056-3.567,7.716-5.725h8.961
	c-2.158,2.325-4.896,4.231-8.214,5.725c3.485,2.325,6.305,4.647,8.463,6.969H330.752z M333.49,35.105v3.734h11.948v-3.734H333.49z
	 M333.49,47.053h11.948V43.07H333.49V47.053z M348.673,29.38c-1.66-2.489-4.231-4.729-7.716-6.721
	c3.318-1.824,5.807-3.816,7.467-5.974h9.21c-2.823,2.823-5.561,4.814-8.214,5.974c2.987,1.66,5.725,3.901,8.214,6.721H348.673z
	 M365.599,35.105h-12.197v3.734h12.197V35.105z M362.612,47.053c1.991,0,2.987-0.996,2.987-2.987V43.07h-12.197v3.982H362.612z
	 M366.595,29.38c-1.493-2.322-4.15-4.644-7.965-6.969c3.485-1.657,6.138-3.567,7.965-5.725h8.712
	c-2.158,2.489-4.814,4.398-7.965,5.725c3.151,1.991,5.889,4.316,8.214,6.969H366.595z"/>
</svg>
